<svg height="43" width="43" xmlns="http://www.w3.org/2000/svg" xmlns:xlink="http://www.w3.org/1999/xlink"><mask id="a" fill="#fff"><path d="m0 43h43v-43h-43z" fill="none"/></mask><g fill="#00a1e7" fill-rule="evenodd"><path d="m37.307 15.094a17.001 17.001 0 0 1 1.245 6.406c0 9.418-7.634 17.053-17.052 17.053s-17.053-7.635-17.053-17.053 7.635-17.053 17.053-17.053c3.143 0 6.087.852 8.615 2.335l3.227-3.227a21.393 21.393 0 0 0 -11.842-3.555c-11.874 0-21.5 9.626-21.5 21.5s9.626 21.5 21.5 21.5 21.5-9.626 21.5-21.5c0-3.515-.844-6.832-2.339-9.76z" mask="url(#a)"/><path d="m35.558 6.935s1.646 1.356 3.28 3.462l-18.734 17.345-7.62-9.329 2.8-3.596 5.185 6.303 15.09-14.185z"/></g></svg>