<svg width="256" height="193" xmlns="http://www.w3.org/2000/svg"><g fill="none" fill-rule="evenodd"><circle fill="#00A1E7" cx="106.5" cy="96.5" r="94.5"/><path d="M106.5 193C53.205 193 10 149.795 10 96.5S53.205 0 106.5 0 203 43.205 203 96.5 159.795 193 106.5 193zm0-4c51.086 0 92.5-41.414 92.5-92.5S157.586 4 106.5 4 14 45.414 14 96.5 55.414 189 106.5 189z" fill="#18FFFF" fill-rule="nonzero"/><path fill="#3E4952" fill-rule="nonzero" d="M255.488 17.76l-1.248 2.728L222.012 5.74l1.248-2.728zM224.012 140.33l-1.341 2.682-14.683-7.341 1.341-2.683zM224.012 102.33l-1.341 2.682-14.683-7.341 1.341-2.683zM224.012 64.33l-1.341 2.682-14.683-7.341 1.341-2.683zM224.012 130.33l-1.341 2.682-14.683-7.341 1.341-2.683zM224.012 92.33l-1.341 2.682-14.683-7.341 1.341-2.683zM224.012 54.33l-1.341 2.682-14.683-7.341 1.341-2.683zM167.5 55.5h-3v-28h3zM209.788 3.814l.398 2.974-103.974 13.898-.398-2.974z"/><path fill="#FFF" d="M80 60h44v40H80zM31 60h44v40H31zM31 107h44v40H31zM80 107h44v40H80zM129 107h44v40h-44z"/><path d="M179 157V47H19.686L3.475 157H179zM3.032 160H2.59l-2.212-2.563.064-.437h3.033l-.443 3zM17.096 44H182v116H0L17.096 44z" fill="#3E4952" fill-rule="nonzero"/><path fill="#3E4952" fill-rule="nonzero" d="M20.5 44.5h3v115h-3zM42 141v-3h21v3zM42 119v-3h21v3zM42 107v-3h21v3zM42 152v-3h21v3zM42 130v-3h21v3z"/><path fill="#3E4952" fill-rule="nonzero" d="M40 93h3v76h-3zM61 93h3v76h-3zM93 142.9a6.9 6.9 0 1 1 0-13.8 6.9 6.9 0 0 1 0 13.8zm0-1.8a5.1 5.1 0 1 0 0-10.2 5.1 5.1 0 0 0 0 10.2zM42 76.9a6.9 6.9 0 1 1 0-13.8 6.9 6.9 0 0 1 0 13.8zm0-1.8a5.1 5.1 0 1 0 0-10.2 5.1 5.1 0 0 0 0 10.2z"/><path fill="#3E4952" d="M92 133h2v4h-2zM41 67h2v4h-2z"/><path fill="#3E4952" d="M96 135v2h-4v-2zM45 69v2h-4v-2z"/><path fill="#979797" fill-rule="nonzero" d="M36 83v-3h32v3zM86 117v-3h32v3zM36.5 89.5v-3h24v3zM86.5 123.5v-3h13v3z"/><path d="M141 64.124L184.572 58l5.567 39.61-43.572 6.124L141 64.124z" fill="#18FFFF"/><g fill="#FFF"><path d="M146.942 63.289l6.931-.975.418 2.971-6.932.974zM146.15 100.764l6.931-.975.418 2.971-6.932.974zM156.844 61.897l6.932-.974.418 2.97-6.932.975zM157.042 99.233l6.932-.975.418 2.971-6.932.974zM165.757 60.644l6.932-.974.417 2.97-6.932.975zM166.945 97.84l6.932-.973.417 2.97-6.931.975zM175.66 59.253l6.931-.975.418 2.971-6.932.974zM175.857 96.588l6.932-.974.418 2.97-6.932.975zM146.15 100.764l-.975-6.932 2.971-.418.974 6.932zM144.758 90.86l-.975-6.931 2.971-.418.974 6.932zM143.366 80.958l-.974-6.932 2.97-.417.975 6.932zM141.974 71.055L141 64.124l2.97-.418.975 6.932zM186.75 95.057l-.974-6.931 2.971-.418.974 6.932zM185.359 85.155l-.975-6.932 2.971-.418.974 6.932zM183.967 75.252l-.974-6.932 2.97-.417.975 6.932z"/><path d="M182.575 65.35l-.974-6.932 2.97-.418.975 6.932z"/></g><path fill="#FFF" fill-rule="nonzero" d="M163.757 72.227l2.971-.418 2.227 15.845-2.971.417z"/><path fill="#FFF" fill-rule="nonzero" d="M174.139 77.336l.417 2.971-15.844 2.227-.417-2.97z"/><path d="M211 5v152h11V5h-11zm-3-3h17v158h-17V2z" fill="#3E4952" fill-rule="nonzero"/><path d="M252.5 20.5h-144v7h144v-7zm3-3v13h-150v-13h150zM160.606 60.716l2.955-.521a4 4 0 1 0 3.244-4.634l-.52-2.955a7 7 0 1 1-5.679 8.11zM194.5 160.5v-3h45v3z" fill="#3E4952" fill-rule="nonzero"/></g></svg>