<svg width="59" height="101" xmlns="http://www.w3.org/2000/svg"><g fill="none" fill-rule="evenodd"><circle fill="#18FFFF" cx="22.5" cy="22.5" r="22.5"/><path d="M37.428 59.055l1.986-2.636c4.167 3.14 10.21 2.188 13.492-2.167 3.281-4.354 2.531-10.426-1.636-13.566a9.141 9.141 0 0 0-2.147-1.205l1.213-3.07c1.036.41 2.016.959 2.92 1.64 5.643 4.252 6.649 12.397 2.285 18.187-4.363 5.79-12.47 7.07-18.113 2.817z" fill="#3E4952" fill-rule="nonzero"/><path d="M22.7 59.002l2.636-1.986a8.35 8.35 0 1 0 13.337-10.05 8.353 8.353 0 0 0-10.53-2.38l-1.53-2.924a11.652 11.652 0 0 1 14.695 3.318c3.873 5.139 2.846 12.443-2.292 16.315-5.139 3.872-12.444 2.846-16.316-2.293zM21.615 23.396l.77 3.208c-3.942.946-6.735 4.325-6.735 8.212 0 .91.15 1.799.444 2.644l-3.119 1.08a11.356 11.356 0 0 1-.625-3.724c0-5.446 3.87-10.126 9.265-11.42z" fill="#3E4952" fill-rule="nonzero"/><circle stroke="#3E4952" stroke-width="3.3" cx="16.5" cy="48.5" r="11.5"/><path d="M28.74 33.112l3.297.115c-.156 4.479 3.445 8.255 8.062 8.416 3.217.112 6.16-1.574 7.65-4.28a7.913 7.913 0 0 0 .978-3.553c.121-3.46-2.016-6.59-5.278-7.85l1.19-3.079c4.554 1.76 7.557 6.159 7.386 11.044a11.213 11.213 0 0 1-1.385 5.029c-2.087 3.793-6.19 6.143-10.657 5.987-6.422-.224-11.464-5.512-11.244-11.83z" fill="#3E4952" fill-rule="nonzero"/><path d="M32.5 34.65c-7.263 0-13.15-5.887-13.15-13.15 0-7.263 5.887-13.15 13.15-13.15 7.263 0 13.15 5.887 13.15 13.15 0 7.263-5.887 13.15-13.15 13.15zm0-3.3c5.44 0 9.85-4.41 9.85-9.85 0-5.44-4.41-9.85-9.85-9.85-5.44 0-9.85 4.41-9.85 9.85 0 5.44 4.41 9.85 9.85 9.85zM19.786 58.262l2.952-1.476 15.476 30.952-2.952 1.476zM32.765 61.33l2.906-1.565 8.564 15.906-2.906 1.564z" fill="#3E4952" fill-rule="nonzero"/><path fill="#3E4952" fill-rule="nonzero" d="M50.319 57.491l2.69 1.328-21.233 42.017L10.481 59.35l2.668-1.37 18.575 36.183z"/></g></svg>