<svg width="69" height="73" xmlns="http://www.w3.org/2000/svg"><g transform="translate(0 -1)" fill="none" fill-rule="evenodd"><circle fill="#18FFFF" cx="42.5" cy="51.5" r="22.5"/><path fill="#3E4952" d="M23.797 17.647l6.895-5.785 1.928 2.298-6.894 5.785zM46.827 44.172l6.895-5.785 1.928 2.298-6.894 5.786zM26.888 22.886l5.363-4.5 1.928 2.298-5.362 4.5zM50.918 49.412l5.362-4.5 1.928 2.299-5.362 4.5z"/><path d="M36.997 49.444l22.02-35.24a5 5 0 0 0-1.59-6.89l-.848-.53a5 5 0 0 0-6.89 1.59L27.716 43.54l.632 10.036 8.65-4.131zm-11.365 8.752l-.97-15.43L47.145 6.785A8 8 0 0 1 58.17 4.24l.848.53a8 8 0 0 1 2.545 11.023L39.078 51.775l-13.446 6.421z" fill="#3E4952" fill-rule="nonzero"/><path fill="#3E4952" fill-rule="nonzero" d="M35.543 50.828l-1.59 2.545-8.48-5.3 1.59-2.544zM60.025 15.422l-1.59 2.544-11.872-7.419 1.59-2.544zM38.016 48.62l3.11-.334-2.148-12.169-11.879 3.404 1.063 2.941 8.345-2.391z"/><path d="M13.84 28.646a.124.124 0 0 1-.008-.014l.008.014zm-.025.874c-.301 1.986-1.116 3.882-4.771 11.62-.248.524-.46.975-.661 1.406-2.535 5.429-3.856 8.822-4.302 11.615-.665 4.163 1.072 6.732 5.233 6.397 9.162-.736 14.989 1.96 17.833 8.075l.633 1.36 2.72-1.266-.633-1.36C26.44 60 19.392 56.74 9.074 57.567c-1.97.16-2.419-.503-2.03-2.933.385-2.419 1.643-5.65 4.057-10.819l.655-1.393c3.877-8.208 4.656-10.02 5.025-12.452.707-4.652-2.676-5.36-8.304-2.295-2.65 1.442-4.54 2.178-5.453 2.243.046-.298.175-.743.409-1.31 1.635-3.97 7.398-11.911 17.207-23.646l.962-1.15L19.3 1.886l-.962 1.151C8.321 15.022 2.455 23.105.66 27.466c-1.176 2.855-.845 5.082 1.688 5.42 1.623.217 4.042-.659 7.564-2.576 1.992-1.084 3.343-1.554 3.947-1.54.017.16.008.414-.043.75zM50.383 30.859l2.258-1.976 15.96 18.24-12.737 11.523-13.98-16.309 2.279-1.952 11.973 13.969 8.264-7.477z" fill="#3E4952" fill-rule="nonzero"/><path fill="#3E4952" fill-rule="nonzero" d="M35.102 29.67l-2.258 1.976-15.96-18.24L29.622 1.884l13.98 16.31-2.278 1.951L29.349 6.175l-8.263 7.477z"/></g></svg>