<svg width="80" height="76" xmlns="http://www.w3.org/2000/svg"><g fill="none" fill-rule="evenodd"><circle fill="#18FFFF" cx="22.5" cy="53.5" r="22.5"/><path d="M13 12v52h64V12H13zm-3-3h70v58H10V9z" fill="#3E4952" fill-rule="nonzero"/><path d="M42.5 10.5h-3a7 7 0 1 0-7 7v3c-5.523 0-10-4.477-10-10s4.477-10 10-10 10 4.477 10 10zM68.5 10.5h-3a7 7 0 1 0-7 7v3c-5.523 0-10-4.477-10-10s4.477-10 10-10 10 4.477 10 10zM10.5 26.5v-3h69v3zM21.156 49.24l-1.24-.844 1.688-2.48 1.24.844c7.596 5.172 15.14 7.74 22.656 7.74 7.516 0 15.06-2.568 22.656-7.74l1.24-.844 1.688 2.48-1.24.844c-8.07 5.495-16.193 8.26-24.344 8.26s-16.273-2.765-24.344-8.26z" fill="#3E4952" fill-rule="nonzero"/><circle fill="#3E4952" cx="34.5" cy="37.5" r="3.5"/><circle fill="#3E4952" cx="55.5" cy="37.5" r="3.5"/></g></svg>