<?xml version="1.0" encoding="UTF-8"?>
<svg width="31px" height="31px" viewBox="0 0 31 31" version="1.1" xmlns="http://www.w3.org/2000/svg" xmlns:xlink="http://www.w3.org/1999/xlink">
    <!-- Generator: Sketch 50.2 (55047) - http://www.bohemiancoding.com/sketch -->
    <title>navigation-fav-icon-gray</title>
    <desc>Created with Sketch.</desc>
    <defs>
        <polygon id="path-1" points="0.000101086957 31 31 31 31 0.000168478261 0.000101086957 0.000168478261 0.000101086957 31"></polygon>
    </defs>
    <g id="-InviteOnce" stroke="none" stroke-width="1" fill="none" fill-rule="evenodd">
        <g id="Desktop_InviteOnce-homepage" transform="translate(-136.000000, -53.000000)">
            <g id="navigation-fav-icon-gray" transform="translate(136.000000, 53.000000)">
                <g id="Group-3">
                    <mask id="mask-2" fill="white">
                        <use xlink:href="#path-1"></use>
                    </mask>
                    <g id="Clip-2"></g>
                    <path d="M26.8956337,10.8815054 C27.474188,12.3075054 27.7936228,13.8662663 27.7936228,15.5001685 C27.7936228,22.2895054 22.289438,27.7936902 15.5001011,27.7936902 C8.71009022,27.7936902 3.20624239,22.2895054 3.20624239,15.5001685 C3.20624239,8.71049457 8.71009022,3.20630978 15.5001011,3.20630978 C17.7657967,3.20630978 19.8879489,3.81990761 21.7108837,4.88907065 L24.0375685,2.56272283 C21.5892424,0.943309783 18.655025,0.000168478261 15.5001011,0.000168478261 C6.9393837,0.000168478261 0.000101086957,6.93945109 0.000101086957,15.5001685 C0.000101086957,24.0605489 6.9393837,31.0001685 15.5001011,31.0001685 C24.0604815,31.0001685 31.0001011,24.0605489 31.0001011,15.5001685 C31.0001011,12.9662554 30.3918946,10.574875 29.3139707,8.46316848 L26.8956337,10.8815054 Z" id="Fill-1" fill="#006BB1" mask="url(#mask-2)"></path>
                </g>
                <path d="M25.8252239,3.9122 C25.8252239,3.9122 27.0278217,4.97192826 28.2219957,6.61762391 L14.5344848,20.1750696 L8.96863696,12.8833304 L11.0129522,10.0724391 L14.8016913,14.9990804 L25.8252239,3.9122 Z" id="Fill-4" fill="#006BB1"></path>
            </g>
        </g>
    </g>
</svg>