<svg width="209" height="193" xmlns="http://www.w3.org/2000/svg"><g fill="none" fill-rule="evenodd"><circle fill="#00A1E7" cx="102.5" cy="96.5" r="94.5"/><path d="M102.5 193C49.205 193 6 149.795 6 96.5S49.205 0 102.5 0 199 43.205 199 96.5 155.795 193 102.5 193zm0-4c51.086 0 92.5-41.414 92.5-92.5S153.586 4 102.5 4 10 45.414 10 96.5 51.414 189 102.5 189z" fill="#18FFFF" fill-rule="nonzero"/><path d="M62.5 90.5a7 7 0 1 1 0-14 7 7 0 0 1 0 14zm0-3a4 4 0 1 0 0-8 4 4 0 0 0 0 8zM19.5 156.5a7 7 0 1 1 0-14 7 7 0 0 1 0 14zm0-3a4 4 0 1 0 0-8 4 4 0 0 0 0 8zM116.5 90.5a7 7 0 1 1 0-14 7 7 0 0 1 0 14zm0-3a4 4 0 1 0 0-8 4 4 0 0 0 0 8zM73.5 156.5a7 7 0 1 1 0-14 7 7 0 0 1 0 14zm0-3a4 4 0 1 0 0-8 4 4 0 0 0 0 8zM170.5 90.5a7 7 0 1 1 0-14 7 7 0 0 1 0 14zm0-3a4 4 0 1 0 0-8 4 4 0 0 0 0 8zM127.5 156.5a7 7 0 1 1 0-14 7 7 0 0 1 0 14zm0-3a4 4 0 1 0 0-8 4 4 0 0 0 0 8zM81.5 90.5a7 7 0 1 1 0-14 7 7 0 0 1 0 14zm0-3a4 4 0 1 0 0-8 4 4 0 0 0 0 8zM38.5 156.5a7 7 0 1 1 0-14 7 7 0 0 1 0 14zm0-3a4 4 0 1 0 0-8 4 4 0 0 0 0 8zM135.5 90.5a7 7 0 1 1 0-14 7 7 0 0 1 0 14zm0-3a4 4 0 1 0 0-8 4 4 0 0 0 0 8zM92.5 156.5a7 7 0 1 1 0-14 7 7 0 0 1 0 14zm0-3a4 4 0 1 0 0-8 4 4 0 0 0 0 8zM189.5 90.5a7 7 0 1 1 0-14 7 7 0 0 1 0 14zm0-3a4 4 0 1 0 0-8 4 4 0 0 0 0 8zM146.5 156.5a7 7 0 1 1 0-14 7 7 0 0 1 0 14zm0-3a4 4 0 1 0 0-8 4 4 0 0 0 0 8zM22 64v-3h28v3zM168 121v-3h28v3zM9.5 57.5v-3h31v3zM158.5 127.5v-3h31v3z" fill="#3E4952" fill-rule="nonzero"/><path fill="#FFF" d="M167.96 38H209l-8.96 37H159z"/><path d="M170.32 41l-7.507 31h34.868l7.506-31h-34.868zm-2.36-3H209l-8.96 37H159l8.96-37z" fill="#3E4952" fill-rule="nonzero"/><path fill="#FFF" d="M147.04 104H106l8.96 37H156z"/><path d="M144.68 107l7.507 31h-34.868l-7.506-31h34.868zm2.36-3H106l8.96 37H156l-8.96-37z" fill="#3E4952" fill-rule="nonzero"/><path fill="#FFF" d="M113.96 38H155l-8.96 37H105z"/><path d="M116.32 41l-7.507 31h34.868l7.506-31h-34.868zm35.593-3h.727l1.805 2.294-.171.706h-3.087l.726-3zm-37.954 0H155l-8.96 37H105l8.96-37z" fill="#3E4952" fill-rule="nonzero"/><path fill="#FFF" d="M93.04 104H52l8.96 37H102z"/><path d="M90.68 107l7.507 31H63.319l-7.506-31h34.868zm2.36-3H52l8.96 37H102l-8.96-37z" fill="#3E4952" fill-rule="nonzero"/><path fill="#FFF" d="M60.96 38H102l-8.96 37H52z"/><path d="M63.32 41l-7.507 31h34.868l7.506-31H63.319zm35.593-3h.727l1.805 2.294-.171.706h-3.087l.726-3zM60.96 38H102l-8.96 37H52l8.96-37z" fill="#3E4952" fill-rule="nonzero"/><path fill="#FFF" d="M41.04 104H0l8.96 37H50z"/><path d="M38.68 107l7.507 31H11.319l-7.506-31h34.868zm2.36-3H0l8.96 37H50l-8.96-37zM192.202 48.659l2.112 2.13-14.352 14.224-7.263-7.937 2.214-2.025 5.154 5.633zM139.202 115.659l2.112 2.13-14.352 14.224-7.263-7.937 2.214-2.025 5.154 5.633zM138.202 49.593l2.112 2.13-14.352 14.224-7.263-7.937 2.214-2.025 5.154 5.634zM86.014 115.659l2.112 2.13-14.352 14.224-7.263-7.937 2.214-2.025 5.154 5.633zM86.202 49.093l2.112 2.13-14.352 14.224-7.263-7.937 2.214-2.025 5.154 5.634z" fill="#3E4952" fill-rule="nonzero"/><path fill="#3E4952" fill-rule="nonzero" d="M34.014 115.659l2.112 2.13-14.352 14.224-7.263-7.937 2.214-2.025 5.154 5.633zM69.5 34.5h3v10h-3zM10.5 100.5h3v10h-3zM122.5 34.5h3v10h-3zM63.5 100.5h3v10h-3zM176.5 34.5h3v10h-3zM117.5 100.5h3v10h-3zM87.5 34.5h3v10h-3zM28.5 100.5h3v10h-3zM140.5 34.5h3v10h-3zM81.5 100.5h3v10h-3zM194.5 34.5h3v10h-3zM135.5 100.5h3v10h-3z"/></g></svg>