<svg width="154" height="23" xmlns="http://www.w3.org/2000/svg"><g fill="#FFF" fill-rule="evenodd"><path d="M116.576 7.986c.595-.15 1.385-.31 2.37-.48.984-.169 2.118-.254 3.4-.254 1.152 0 2.109.166 2.87.495.763.33 1.371.79 1.827 1.382.455.593.775 1.304.962 2.132.185.828.278 1.74.278 2.737v8.241h-2.592v-7.677c0-.903-.06-1.674-.181-2.314-.121-.64-.321-1.157-.6-1.552a2.38 2.38 0 0 0-1.114-.861c-.465-.179-1.042-.268-1.73-.268-.277 0-.566.01-.863.028-.297.019-.581.042-.85.07-.27.029-.512.062-.724.1-.215.037-.368.066-.46.084v12.39h-2.593V7.986zM136.784 22.578c-1.17 0-2.197-.189-3.08-.565a6.192 6.192 0 0 1-2.23-1.58 6.573 6.573 0 0 1-1.351-2.413c-.298-.932-.446-1.962-.446-3.09 0-1.13.162-2.164.487-3.106.325-.94.785-1.754 1.38-2.44a6.194 6.194 0 0 1 2.188-1.61c.864-.385 1.826-.578 2.885-.578.65 0 1.3.057 1.951.17.65.112 1.273.291 1.868.536l-.586 2.23a6.192 6.192 0 0 0-1.351-.452 7.568 7.568 0 0 0-1.631-.17c-1.45 0-2.56.462-3.331 1.384-.771.921-1.157 2.267-1.157 4.035 0 .79.088 1.515.265 2.174.176.658.455 1.223.836 1.692.381.47.869.833 1.463 1.087.595.254 1.32.381 2.175.381.687 0 1.31-.066 1.867-.197.558-.132.994-.273 1.31-.424l.363 2.202c-.15.094-.363.183-.641.268-.279.085-.596.16-.948.226-.353.065-.73.122-1.129.169-.4.047-.785.07-1.157.07M151.195 13.49c.018-1.185-.274-2.16-.878-2.921-.604-.762-1.436-1.143-2.495-1.143-.595 0-1.12.118-1.575.353-.455.235-.84.54-1.156.917a4.24 4.24 0 0 0-.74 1.298c-.176.49-.292.988-.347 1.496h7.19zm-9.95 1.44c0-1.299.184-2.432.556-3.401.372-.97.865-1.774 1.478-2.414a6 6 0 0 1 2.119-1.439 6.538 6.538 0 0 1 2.452-.48c1.951 0 3.447.617 4.488 1.849 1.04 1.232 1.56 3.109 1.56 5.63v.438c0 .178-.01.343-.027.494h-9.923c.111 1.524.548 2.68 1.31 3.471.762.79 1.95 1.185 3.568 1.185.91 0 1.676-.08 2.3-.24.622-.16 1.09-.315 1.407-.465l.362 2.2c-.316.17-.869.35-1.658.537-.79.188-1.686.283-2.69.283-1.264 0-2.355-.194-3.275-.579-.92-.386-1.677-.917-2.272-1.595-.595-.677-1.036-1.481-1.324-2.412-.288-.932-.432-1.952-.432-3.063zM5.965 20.291c2.824 0 4.237-.977 4.237-2.934 0-.603-.126-1.115-.376-1.539-.251-.423-.59-.79-1.018-1.1a7.06 7.06 0 0 0-1.463-.805 48.654 48.654 0 0 0-1.743-.677 17.547 17.547 0 0 1-2.006-.833 7.007 7.007 0 0 1-1.645-1.1A4.66 4.66 0 0 1 .85 9.792C.58 9.209.446 8.504.446 7.676c0-1.712.576-3.048 1.728-4.008 1.152-.96 2.74-1.439 4.766-1.439 1.171 0 2.235.127 3.192.381.957.254 1.659.532 2.104.833l-.864 2.23c-.39-.245-.97-.485-1.742-.72-.77-.236-1.668-.353-2.69-.353-.52 0-1.003.056-1.45.169a3.708 3.708 0 0 0-1.17.508c-.334.226-.599.513-.794.86-.195.35-.293.759-.293 1.228 0 .528.102.97.307 1.327.204.358.492.673.864.945.371.274.804.523 1.296.748a26.46 26.46 0 0 0 1.63.678c.837.339 1.603.677 2.3 1.016.697.338 1.3.743 1.812 1.213.51.47.906 1.03 1.185 1.68.279.649.418 1.434.418 2.356 0 1.712-.618 3.03-1.854 3.951-1.236.922-2.978 1.383-5.226 1.383a13.24 13.24 0 0 1-2.105-.155 15.52 15.52 0 0 1-1.714-.367 9.842 9.842 0 0 1-1.296-.451 10.99 10.99 0 0 1-.85-.41l.808-2.257c.427.244 1.078.517 1.951.818.874.301 1.942.451 3.206.451M21.045 22.578c-1.171 0-2.198-.189-3.08-.565a6.198 6.198 0 0 1-2.23-1.58 6.574 6.574 0 0 1-1.353-2.413c-.297-.932-.445-1.962-.445-3.09 0-1.13.162-2.164.488-3.106.324-.94.784-1.754 1.38-2.44a6.191 6.191 0 0 1 2.187-1.61c.865-.385 1.826-.578 2.885-.578.65 0 1.3.057 1.951.17.65.112 1.273.291 1.868.536l-.585 2.23a6.201 6.201 0 0 0-1.352-.452 7.568 7.568 0 0 0-1.63-.17c-1.45 0-2.561.462-3.332 1.384-.771.921-1.157 2.267-1.157 4.035 0 .79.089 1.515.265 2.174.177.658.455 1.223.836 1.692.38.47.869.833 1.464 1.087.594.254 1.319.381 2.174.381.687 0 1.31-.066 1.868-.197.557-.132.993-.273 1.31-.424l.362 2.202a2.709 2.709 0 0 1-.641.268c-.279.085-.595.16-.948.226-.353.065-.73.122-1.129.169-.4.047-.785.07-1.156.07M26.312 22.239V.789l2.593-.45v7.506a8.738 8.738 0 0 1 1.547-.437 8.797 8.797 0 0 1 1.63-.156c1.152 0 2.11.166 2.872.495.761.329 1.37.79 1.825 1.382.455.593.776 1.303.962 2.131.186.828.278 1.741.278 2.738v8.24h-2.591v-7.676c0-.903-.061-1.674-.182-2.314-.12-.64-.32-1.157-.6-1.552a2.378 2.378 0 0 0-1.114-.86c-.465-.18-1.041-.27-1.728-.27-.279 0-.567.02-.864.057-.298.038-.581.08-.85.127a8.66 8.66 0 0 0-.725.156 4.216 4.216 0 0 0-.46.14V22.24h-2.593zM49.28 13.49c.02-1.185-.274-2.16-.877-2.921-.604-.762-1.436-1.143-2.495-1.143-.595 0-1.12.118-1.575.353-.456.235-.841.54-1.157.917-.316.376-.562.809-.738 1.298-.177.49-.293.988-.349 1.496h7.192zm-9.95 1.44c0-1.299.185-2.432.557-3.401.372-.97.864-1.774 1.477-2.414a5.998 5.998 0 0 1 2.119-1.439c.799-.32 1.617-.48 2.453-.48 1.95 0 3.447.617 4.488 1.849 1.04 1.232 1.56 3.109 1.56 5.63v.438c0 .178-.01.343-.028.494h-9.923c.112 1.524.548 2.68 1.31 3.471.762.79 1.952 1.185 3.568 1.185.91 0 1.677-.08 2.3-.24.622-.16 1.091-.315 1.408-.465l.362 2.2c-.316.17-.869.35-1.658.537-.79.188-1.687.283-2.69.283-1.264 0-2.356-.194-3.276-.579-.92-.386-1.677-.917-2.271-1.595-.595-.677-1.036-1.481-1.324-2.412-.289-.932-.432-1.952-.432-3.063zM63.69 10.668c-.315-.264-.77-.517-1.365-.762a5.084 5.084 0 0 0-1.95-.367c-.745 0-1.38.136-1.91.409a3.52 3.52 0 0 0-1.296 1.129c-.335.48-.576 1.05-.725 1.707a9.583 9.583 0 0 0-.223 2.117c0 1.712.418 3.034 1.254 3.965.836.931 1.951 1.397 3.345 1.397.706 0 1.296-.032 1.77-.099.474-.065.84-.136 1.1-.211v-9.285zm0-9.878l2.594-.452v21.478a25.09 25.09 0 0 1-2.286.508c-.93.169-1.998.254-3.206.254-1.115 0-2.118-.18-3.01-.537a6.435 6.435 0 0 1-2.286-1.524c-.632-.658-1.12-1.462-1.463-2.413-.344-.95-.516-2.018-.516-3.203 0-1.129.144-2.163.432-3.105.288-.94.71-1.75 1.269-2.427a5.775 5.775 0 0 1 2.048-1.58c.808-.376 1.733-.565 2.773-.565.837 0 1.575.113 2.216.339.642.226 1.12.442 1.436.65V.79zM80.192 21.816c-.594.15-1.38.31-2.355.48-.975.169-2.105.253-3.387.253-1.115 0-2.053-.164-2.815-.494-.762-.329-1.376-.794-1.84-1.397-.465-.602-.8-1.312-1.003-2.13-.205-.819-.307-1.726-.307-2.724V7.563h2.592v7.677c0 1.787.279 3.067.836 3.838.558.772 1.496 1.157 2.816 1.157.279 0 .567-.01.864-.028.297-.019.576-.043.836-.07.26-.029.497-.057.711-.086a2.09 2.09 0 0 0 .46-.098V7.563h2.592v14.253zM87.05 22.521c-1.6-.038-2.732-.385-3.402-1.044-.669-.658-1.003-1.684-1.003-3.076V.79l2.592-.452v17.64c0 .432.037.79.112 1.072.074.282.195.508.362.677.167.17.39.296.669.381.279.085.622.155 1.031.212l-.362 2.201zM97.78 13.49c.019-1.185-.274-2.16-.878-2.921-.604-.762-1.435-1.143-2.494-1.143-.595 0-1.12.118-1.576.353-.455.235-.84.54-1.156.917-.316.376-.562.809-.739 1.298-.177.49-.292.988-.348 1.496h7.191zm-9.95 1.44c0-1.299.185-2.432.557-3.401.371-.97.864-1.774 1.477-2.414a5.995 5.995 0 0 1 2.119-1.439 6.54 6.54 0 0 1 2.452-.48c1.952 0 3.448.617 4.488 1.849 1.04 1.232 1.56 3.109 1.56 5.63v.438c0 .178-.009.343-.027.494h-9.923c.112 1.524.548 2.68 1.31 3.471.762.79 1.951 1.185 3.568 1.185.91 0 1.677-.08 2.3-.24.622-.16 1.09-.315 1.407-.465l.362 2.2c-.315.17-.869.35-1.658.537-.79.188-1.686.283-2.69.283-1.264 0-2.355-.194-3.275-.579-.92-.386-1.677-.917-2.271-1.595-.596-.677-1.037-1.481-1.324-2.412-.289-.932-.433-1.952-.433-3.063zM105.567 4.54c1.037 0 1.966.186 2.787.56.315.144.607.309.887.489l1.72-1.741a8.234 8.234 0 0 0-1.764-.962 9.584 9.584 0 0 0-3.522-.648 9.878 9.878 0 0 0-3.578.648 8.283 8.283 0 0 0-2.508 1.526l1.422 1.851c.504-.49 1.086-.862 1.755-1.163.831-.374 1.764-.56 2.801-.56M112.032 10.144c.145.719.223 1.484.223 2.304 0 1.209-.157 2.307-.47 3.295-.313.988-.758 1.827-1.334 2.517-.577.69-1.276 1.178-2.097 1.552-.822.374-1.75.562-2.787.562-1.036 0-1.97-.188-2.8-.562-.067-.03-.126-.064-.19-.096l-.747 2.165c.09.038.175.084.267.12a9.868 9.868 0 0 0 3.578.648 9.58 9.58 0 0 0 3.522-.649 8.206 8.206 0 0 0 2.91-1.93c.835-.856 1.498-1.922 1.99-3.2.492-1.278.738-2.754.738-4.427 0-1.661-.244-3.127-.729-4.399l-2.074 2.1zM112.089 4.812s.774.742 1.357 1.837l-8.382 8.407-3.293-4.38 1.272-1.77 2.187 2.89 6.859-6.984z"/></g></svg>