<svg width="175" height="26" xmlns="http://www.w3.org/2000/svg"><g fill="none" fill-rule="evenodd"><path d="M132.473 9.028c.675-.17 1.573-.35 2.693-.542 1.118-.192 2.406-.288 3.864-.288 1.309 0 2.396.187 3.262.56.865.371 1.557.892 2.075 1.562.517.67.881 1.473 1.093 2.41.21.935.316 1.967.316 3.094v9.316h-2.946V16.46c0-1.02-.068-1.892-.205-2.615-.138-.723-.365-1.309-.682-1.755a2.703 2.703 0 0 0-1.266-.973c-.528-.202-1.184-.303-1.965-.303-.316 0-.644.01-.981.032-.338.021-.66.047-.966.08-.306.031-.582.069-.824.11-.243.044-.417.076-.522.097V25.14h-2.946V9.028zM155.437 25.523c-1.33 0-2.497-.213-3.5-.639a7.036 7.036 0 0 1-2.535-1.786c-.686-.766-1.198-1.675-1.535-2.728-.339-1.053-.507-2.217-.507-3.494 0-1.276.184-2.445.554-3.51.369-1.062.892-1.982 1.567-2.759a7.037 7.037 0 0 1 2.487-1.818c.982-.436 2.075-.654 3.279-.654.738 0 1.477.063 2.217.191.739.128 1.446.33 2.122.606l-.665 2.52a7.062 7.062 0 0 0-1.536-.51 8.643 8.643 0 0 0-1.853-.191c-1.647 0-2.91.522-3.785 1.564-.877 1.041-1.315 2.562-1.315 4.561 0 .894.1 1.713.301 2.457.2.745.517 1.383.95 1.914.433.532.987.941 1.663 1.229.676.287 1.499.43 2.47.43.782 0 1.49-.074 2.123-.223.633-.149 1.13-.308 1.489-.479l.412 2.49c-.17.105-.412.206-.729.302s-.676.18-1.077.255a19.91 19.91 0 0 1-1.283.192c-.454.052-.892.08-1.314.08M171.812 15.25c.021-1.34-.311-2.441-.997-3.303-.687-.861-1.632-1.292-2.835-1.292-.676 0-1.273.133-1.79.4a4.222 4.222 0 0 0-1.314 1.036c-.36.426-.639.915-.84 1.467a7.295 7.295 0 0 0-.396 1.692h8.172zm-11.307 1.627c0-1.468.21-2.75.633-3.845.422-1.095.982-2.004 1.679-2.728a6.82 6.82 0 0 1 2.407-1.627 7.463 7.463 0 0 1 2.788-.542c2.217 0 3.917.697 5.1 2.09 1.182 1.393 1.773 3.514 1.773 6.364v.495c0 .202-.011.388-.032.558h-11.276c.127 1.723.623 3.03 1.489 3.924.866.894 2.217 1.34 4.054 1.34 1.034 0 1.905-.09 2.613-.27.707-.181 1.24-.357 1.6-.527l.411 2.488c-.358.192-.987.394-1.884.606-.898.213-1.916.32-3.057.32-1.436 0-2.676-.219-3.722-.655-1.045-.435-1.905-1.036-2.581-1.802-.676-.766-1.178-1.675-1.504-2.728-.328-1.053-.491-2.206-.491-3.461z" fill="#333E48"/><path d="M6.778 22.938c3.21 0 4.815-1.105 4.815-3.318 0-.68-.142-1.26-.428-1.739a4.152 4.152 0 0 0-1.156-1.244 8.035 8.035 0 0 0-1.663-.909 55.464 55.464 0 0 0-1.98-.766 19.998 19.998 0 0 1-2.28-.94 7.965 7.965 0 0 1-1.87-1.245 5.269 5.269 0 0 1-1.25-1.707c-.307-.66-.46-1.457-.46-2.393 0-1.935.655-3.446 1.964-4.53C3.78 3.062 5.585 2.52 7.887 2.52c1.33 0 2.539.143 3.627.43 1.087.288 1.884.602 2.391.942l-.982 2.52c-.443-.276-1.103-.547-1.98-.814-.876-.265-1.895-.398-3.056-.398-.591 0-1.14.063-1.647.19-.507.129-.95.32-1.33.575a2.84 2.84 0 0 0-.903.973c-.222.394-.333.857-.333 1.388 0 .596.116 1.096.348 1.5.233.404.56.76.982 1.068.423.31.914.59 1.473.846.56.255 1.177.51 1.853.766.95.383 1.822.765 2.613 1.148.793.383 1.478.84 2.06 1.372a5.508 5.508 0 0 1 1.346 1.898c.316.734.475 1.622.475 2.664 0 1.936-.703 3.425-2.107 4.467-1.404 1.042-3.384 1.563-5.939 1.563-.866 0-1.663-.058-2.391-.175a17.716 17.716 0 0 1-1.948-.415c-.57-.16-1.061-.33-1.473-.51-.412-.18-.734-.336-.966-.463l.918-2.552c.486.276 1.225.585 2.218.925.992.34 2.206.51 3.642.51M23.914 25.523c-1.33 0-2.497-.213-3.5-.639a7.042 7.042 0 0 1-2.534-1.786c-.686-.766-1.199-1.675-1.536-2.728-.338-1.053-.507-2.217-.507-3.494 0-1.276.185-2.445.555-3.51.369-1.062.891-1.982 1.567-2.759a7.033 7.033 0 0 1 2.487-1.818c.982-.436 2.075-.654 3.278-.654.739 0 1.478.063 2.217.191.74.128 1.446.33 2.122.606l-.664 2.52a7.073 7.073 0 0 0-1.537-.51 8.643 8.643 0 0 0-1.853-.191c-1.647 0-2.91.522-3.785 1.564-.876 1.041-1.314 2.562-1.314 4.561 0 .894.1 1.713.3 2.457.201.745.518 1.383.95 1.914.433.532.987.941 1.664 1.229.675.287 1.498.43 2.47.43.782 0 1.49-.074 2.123-.223.633-.149 1.129-.308 1.488-.479l.412 2.49c-.17.105-.412.206-.728.302-.317.096-.677.18-1.077.255-.402.074-.83.138-1.283.192a11.4 11.4 0 0 1-1.315.08M29.9 25.14V.893l2.946-.51v8.486a9.97 9.97 0 0 1 1.758-.495c.623-.116 1.24-.176 1.853-.176 1.31 0 2.397.187 3.263.559.865.372 1.557.894 2.075 1.563.517.67.88 1.473 1.092 2.41.211.935.317 1.967.317 3.094v9.316h-2.945v-8.678c0-1.021-.07-1.893-.207-2.616-.137-.723-.364-1.308-.68-1.755a2.7 2.7 0 0 0-1.268-.973c-.528-.202-1.183-.303-1.963-.303-.317 0-.645.021-.982.064-.339.042-.66.09-.966.143a9.885 9.885 0 0 0-.824.176 4.81 4.81 0 0 0-.523.16V25.14h-2.945zM56 15.25c.022-1.34-.311-2.441-.997-3.303-.686-.861-1.631-1.292-2.835-1.292-.676 0-1.272.133-1.79.4a4.222 4.222 0 0 0-1.314 1.036c-.36.426-.639.915-.84 1.467a7.258 7.258 0 0 0-.395 1.692H56zm-11.307 1.627c0-1.468.21-2.75.633-3.845.422-1.095.982-2.004 1.679-2.728a6.818 6.818 0 0 1 2.407-1.627 7.47 7.47 0 0 1 2.788-.542c2.217 0 3.917.697 5.1 2.09 1.182 1.393 1.773 3.514 1.773 6.364v.495c0 .202-.01.388-.032.558H47.765c.127 1.723.623 3.03 1.49 3.924.865.894 2.216 1.34 4.053 1.34 1.035 0 1.906-.09 2.614-.27.707-.181 1.24-.357 1.6-.527l.41 2.488c-.358.192-.987.394-1.884.606-.897.213-1.916.32-3.056.32-1.437 0-2.677-.219-3.722-.655-1.045-.435-1.906-1.036-2.582-1.802-.675-.766-1.177-1.675-1.504-2.728-.328-1.053-.49-2.206-.49-3.461zM72.376 12.06c-.36-.299-.876-.585-1.552-.862a5.804 5.804 0 0 0-2.217-.415c-.845 0-1.568.154-2.17.462a3.993 3.993 0 0 0-1.472 1.276c-.38.543-.655 1.187-.824 1.93-.17.746-.253 1.543-.253 2.394 0 1.935.475 3.429 1.425 4.482.95 1.053 2.217 1.58 3.801 1.58.802 0 1.473-.038 2.011-.113a9.458 9.458 0 0 0 1.251-.239V12.06zm0-11.167l2.946-.51V24.66c-.676.191-1.541.383-2.597.574-1.056.192-2.27.288-3.643.288-1.267 0-2.407-.203-3.42-.607a7.316 7.316 0 0 1-2.598-1.723c-.718-.744-1.273-1.653-1.663-2.727-.391-1.074-.586-2.282-.586-3.621 0-1.277.163-2.446.49-3.51.328-1.063.808-1.978 1.442-2.744a6.558 6.558 0 0 1 2.328-1.786c.919-.425 1.97-.638 3.152-.638.95 0 1.79.127 2.518.383.728.255 1.272.5 1.631.733V.893zM91.127 24.661c-.675.17-1.567.35-2.676.542-1.108.192-2.392.287-3.848.287-1.268 0-2.334-.186-3.2-.558-.866-.372-1.563-.898-2.09-1.579-.529-.68-.909-1.483-1.14-2.409-.233-.925-.35-1.95-.35-3.078V8.55h2.947v8.678c0 2.02.316 3.467.95 4.338.634.873 1.7 1.308 3.2 1.308.316 0 .643-.01.98-.031.338-.021.656-.049.952-.08.295-.032.564-.064.807-.096.242-.032.417-.07.523-.112V8.55h2.945V24.66zM98.92 25.459c-1.817-.043-3.105-.436-3.865-1.18-.76-.745-1.14-1.904-1.14-3.478V.893l2.945-.51v19.939c0 .49.043.894.127 1.212.084.32.222.575.412.766.19.191.443.335.76.43.317.097.707.176 1.172.24l-.412 2.489zM111.114 15.25c.02-1.34-.312-2.441-.998-3.303-.686-.861-1.631-1.292-2.835-1.292-.676 0-1.272.133-1.79.4a4.222 4.222 0 0 0-1.314 1.036c-.36.426-.638.915-.84 1.467a7.277 7.277 0 0 0-.395 1.692h8.172zm-11.308 1.627c0-1.468.21-2.75.633-3.845.423-1.095.983-2.004 1.68-2.728a6.815 6.815 0 0 1 2.407-1.627 7.466 7.466 0 0 1 2.787-.542c2.217 0 3.917.697 5.1 2.09 1.182 1.393 1.773 3.514 1.773 6.364v.495c0 .202-.01.388-.031.558h-11.276c.126 1.723.622 3.03 1.488 3.924.866.894 2.217 1.34 4.055 1.34 1.034 0 1.905-.09 2.613-.27.707-.181 1.24-.357 1.6-.527l.41 2.488c-.358.192-.987.394-1.883.606-.898.213-1.917.32-3.057.32-1.437 0-2.677-.219-3.722-.655-1.045-.435-1.906-1.036-2.581-1.802-.677-.766-1.178-1.675-1.505-2.728-.328-1.053-.49-2.206-.49-3.461z" fill="#009BDE"/><path d="M119.963 5.131c1.178 0 2.233.212 3.166.634.359.163.69.35 1.008.553l1.954-1.968a9.371 9.371 0 0 0-2.004-1.087 10.941 10.941 0 0 0-4.002-.733c-1.435 0-2.79.244-4.066.733a9.422 9.422 0 0 0-2.85 1.725l1.616 2.092c.573-.554 1.235-.974 1.995-1.315.944-.422 2.005-.634 3.183-.634M127.31 11.467c.163.813.252 1.678.252 2.605 0 1.366-.178 2.608-.533 3.724-.356 1.117-.862 2.065-1.517 2.846-.655.78-1.45 1.332-2.383 1.754-.933.423-1.988.635-3.166.635s-2.239-.212-3.183-.635c-.075-.033-.143-.073-.216-.108l-.848 2.448c.102.042.199.094.303.134 1.276.488 2.631.733 4.066.733 1.413 0 2.747-.245 4.003-.733a9.33 9.33 0 0 0 3.306-2.183c.95-.967 1.703-2.172 2.262-3.617.558-1.445.839-3.113.839-5.004 0-1.878-.278-3.534-.83-4.973l-2.356 2.374z" fill="#333E48"/><path d="M127.373 5.44s.88.838 1.542 2.076l-9.524 9.504-3.743-4.95 1.446-2.003 2.486 3.267 7.793-7.895z" fill="#009BDE"/></g></svg>