<?xml version="1.0" encoding="UTF-8"?>
<svg width="45px" height="45px" viewBox="0 0 45 45" version="1.1" xmlns="http://www.w3.org/2000/svg" xmlns:xlink="http://www.w3.org/1999/xlink">
    <!-- Generator: Sketch 50.2 (55047) - http://www.bohemiancoding.com/sketch -->
    <title>scheduleonce-fav-blue-last</title>
    <desc>Created with Sketch.</desc>
    <defs>
        <polygon id="path-1" points="0.00014673913 45 45 45 45 0.000244565217 0.00014673913 0.000244565217 0.00014673913 45"></polygon>
    </defs>
    <g id="ScheduleOnce" stroke="none" stroke-width="1" fill="none" fill-rule="evenodd">
        <g id="Desktop_ScheduleOnce-homepage" transform="translate(-698.000000, -2336.000000)">
            <g id="scheduleonce-fav-blue-last" transform="translate(698.000000, 2336.000000)">
                <g id="Group-3">
                    <mask id="mask-2" fill="white">
                        <use xlink:href="#path-1"></use>
                    </mask>
                    <g id="Clip-2"></g>
                    <path d="M39.0420489,15.7957337 C39.8818859,17.8657337 40.3455815,20.1284511 40.3455815,22.5002446 C40.3455815,32.3557337 32.3556359,40.3456793 22.5001467,40.3456793 C12.6436793,40.3456793 4.65422283,32.3557337 4.65422283,22.5002446 C4.65422283,12.6442663 12.6436793,4.65432065 22.5001467,4.65432065 C25.7890598,4.65432065 28.8696033,5.54502717 31.5157989,7.09703804 L34.8932446,3.72008152 C31.3392228,1.36932065 27.079875,0.000244565217 22.5001467,0.000244565217 C10.0732989,0.000244565217 0.00014673913,10.0733967 0.00014673913,22.5002446 C0.00014673913,34.9266033 10.0732989,45.0002446 22.5001467,45.0002446 C34.9265054,45.0002446 45.0001467,34.9266033 45.0001467,22.5002446 C45.0001467,18.8219837 44.1172663,15.350625 42.552538,12.2852446 L39.0420489,15.7957337 Z" id="Fill-1" fill="#3E4952" mask="url(#mask-2)"></path>
                </g>
                <path d="M37.4882283,5.679 C37.4882283,5.679 39.2339348,7.21731522 40.967413,9.60622826 L21.0984457,29.2863913 L13.0189891,18.7016087 L15.9865435,14.6212826 L21.4863261,21.7728587 L37.4882283,5.679 Z" id="Fill-4" fill="#019DE0"></path>
            </g>
        </g>
    </g>
</svg>