<svg width="73" height="99" xmlns="http://www.w3.org/2000/svg"><g transform="translate(-12 -7)" fill="none" fill-rule="evenodd"><circle fill="#18FFFF" cx="62.5" cy="56.5" r="22.5"/><path d="M60.276 85.276l-2.122-2.122a24.885 24.885 0 0 0 7.178-14.987c.186-1.724-.738-9.562-1.395-11.346a24.9 24.9 0 0 0-5.783-9.022c-9.763-9.763-25.592-9.763-35.355 0-9.763 9.763-9.763 25.592 0 35.355l-2.121 2.122c-10.935-10.935-10.935-28.664 0-39.598 10.934-10.935 28.663-10.935 39.598 0a27.9 27.9 0 0 1 6.476 10.106c.819 2.223 1.798 10.526 1.563 12.704a27.884 27.884 0 0 1-8.04 16.788z" fill="#3E4952" fill-rule="nonzero"/><path d="M15 67.088l27.004 5.835L66 67.146v-7.464l-23.995-5.61L15 59.74v7.35zm-3-9.785L42.04 51 69 57.303v12.206L42.04 76 12 69.51V57.302z" fill="#3E4952" fill-rule="nonzero"/><path fill="#3E4952" fill-rule="nonzero" d="M39 57h3v13h-3zM47.5 59.5h3v9h-3zM55.5 60.5h3v6h-3zM23.5 60.5h3v6h-3zM31.5 59.5h3v9h-3zM49 35H33v6h-3v-9h22v9h-3z"/><path d="M61.795 49.504l-2.41-1.787c6.08-8.203 6.346-22.778-1.852-31.833-4.166-4.601-8.833-6.093-13.465-5.022-3.764.87-7.207 3.49-8.557 6.138-2.28 4.474-.788 11.39 2.67 14.848l-2.121 2.12c-4.334-4.333-6.125-12.634-3.221-18.33 1.758-3.45 5.94-6.632 10.553-7.699 5.698-1.318 11.473.528 16.365 5.932 9.219 10.182 8.924 26.342 2.038 35.633z" fill="#3E4952" fill-rule="nonzero"/><path d="M51.507 42.45l-2.362-1.849c.403-.514 1.683-2.127 1.726-2.182 3.853-4.883 4.342-6.544 2.347-9.978-1.11-1.908-2.85-2.748-4.992-2.704-1.638.033-3.36.67-3.708 1.091-1.19 1.439-1.976 4.71-1.227 5.46l-2.12 2.12c-2.179-2.178-1.018-7.01 1.034-9.491.984-1.19 3.527-2.13 5.96-2.18 3.168-.064 5.95 1.277 7.646 4.197 2.777 4.778 1.947 7.6-2.585 13.343-.048.062-1.323 1.669-1.719 2.174zM62.105 97.681l1.811-3.583-2.52.976.709 2.607zm-21.689 5.522l2.129-.015-1.067-.397-1.062.412zm-20.533-5.479l-1.838-3.64 2.607.968-.769 2.672zm0 0l-1.838-3.64 2.607.968-.769 2.672zm21.595 5.067l19.919-7.717-3.336-12.288L60.956 82 65 96.895 41.5 106 17 96.895 21.284 82l2.883.83-3.515 12.222 20.826 7.74zm1.067.397l-2.129.015 1.062-.412 1.067.397zm21.371-9.09l-1.811 3.583-.708-2.607 2.52-.976z" fill="#3E4952" fill-rule="nonzero"/><path d="M33 86v3h16v-3H33zm-3-3h22v9H30v-9z" fill="#3E4952" fill-rule="nonzero"/></g></svg>