<svg width="194" height="193" xmlns="http://www.w3.org/2000/svg"><g transform="translate(-23)" fill="none" fill-rule="evenodd"><circle fill="#00A1E7" cx="119.5" cy="96.5" r="94.5"/><path d="M119.5 193C66.205 193 23 149.795 23 96.5S66.205 0 119.5 0 216 43.205 216 96.5 172.795 193 119.5 193zm0-4c51.086 0 92.5-41.414 92.5-92.5S170.586 4 119.5 4 27 45.414 27 96.5 68.414 189 119.5 189z" fill="#18FFFF" fill-rule="nonzero"/><g stroke-width="3"><g stroke="#3E4952"><path d="M104.5 24.5h30v11h-30z"/><path d="M109.5 34.5c0 5.523 4.477 10 10 10s10-4.477 10-10"/></g><path stroke="#FFF" d="M42.328 190.707L119.885 51l80.88 139.707"/></g><g stroke-width="3"><g stroke="#3E4952"><path d="M187.298 25.781l27.615 11.722-4.298 10.126L183 35.907z"/><path d="M187.464 36.629c-2.158 5.084.213 10.954 5.297 13.112 5.084 2.158 10.955-.214 13.113-5.297"/></g><path stroke="#FFF" d="M152.506 86.574l38.772-32.15L194.73 158.3"/></g><g stroke-width="3"><g stroke="#3E4952"><path d="M55.594 25.702L27.98 37.423l4.298 10.126 27.615-11.722z"/><path d="M54.795 36.397c2.158 5.084-.214 10.955-5.297 13.113-5.084 2.158-10.955-.214-13.113-5.298"/></g><path stroke="#FFF" d="M87.23 86.722L51.065 54.643 48.45 158.728"/></g><ellipse fill="#FFF" cx="119.5" cy="151.5" rx="52.5" ry="7.5"/><path d="M140 110.344h-4V135.5c0 8.56-6.94 15.5-15.5 15.5-8.56 0-15.5-6.94-15.5-15.5V115c0-8.837 7.163-16 16-16h7.3v-4H121c-11.046 0-20 8.954-20 20v20.5c0 10.77 8.73 19.5 19.5 19.5s19.5-8.73 19.5-19.5v-25.156zm-4 0V135.5c0 8.56-6.94 15.5-15.5 15.5-8.56 0-15.5-6.94-15.5-15.5V115c0-8.837 7.163-16 16-16h7.3v-4H121c-11.046 0-20 8.954-20 20v20.5c0 10.77 8.73 19.5 19.5 19.5s19.5-8.73 19.5-19.5v-25.156h-4z" fill="#3E4952" fill-rule="nonzero"/><path d="M101 100.656h4V75.5c0-8.56 6.94-15.5 15.5-15.5 8.56 0 15.5 6.94 15.5 15.5V96c0 8.837-7.163 16-16 16h-7.3v4h7.3c11.046 0 20-8.954 20-20V75.5c0-10.77-8.73-19.5-19.5-19.5S101 64.73 101 75.5v25.156zm0 0h4V75.5c0-8.56 6.94-15.5 15.5-15.5 8.56 0 15.5 6.94 15.5 15.5V96c0 8.837-7.163 16-16 16h-7.3v4h7.3c11.046 0 20-8.954 20-20V75.5c0-10.77-8.73-19.5-19.5-19.5S101 64.73 101 75.5v25.156z" fill="#3E4952" fill-rule="nonzero"/><g fill="#3E4952" fill-rule="nonzero"><path d="M199.877 77.398l.903 2.449a.234.234 0 0 0 .44 0l.903-2.449a7.219 7.219 0 0 1 4.275-4.275l2.449-.903a.234.234 0 0 0 0-.44l-2.449-.903a7.219 7.219 0 0 1-4.275-4.275l-.903-2.449a.234.234 0 0 0-.44 0l-.903 2.449a7.22 7.22 0 0 1-4.275 4.275l-2.449.903a.234.234 0 0 0 0 .44l2.449.903a7.218 7.218 0 0 1 4.275 4.275zM72.847 104.78l-2.449-.903a7.219 7.219 0 0 1-4.275-4.275l-.903-2.449a.234.234 0 0 0-.44 0l-.903 2.449a7.22 7.22 0 0 1-4.275 4.275l-2.449.903a.234.234 0 0 0 0 .44l2.449.903a7.22 7.22 0 0 1 4.275 4.275l.903 2.449a.234.234 0 0 0 .44 0l.903-2.449a7.219 7.219 0 0 1 4.275-4.275l2.449-.903a.234.234 0 0 0 0-.44zM178.895 102.349l-1.684-.621a4.964 4.964 0 0 1-2.94-2.94l-.62-1.683a.161.161 0 0 0-.302 0l-.62 1.683a4.963 4.963 0 0 1-2.94 2.94l-1.684.62a.161.161 0 0 0 0 .303l1.684.62a4.964 4.964 0 0 1 2.94 2.94l.62 1.684a.161.161 0 0 0 .302 0l.62-1.684a4.963 4.963 0 0 1 2.94-2.94l1.684-.62a.161.161 0 0 0 0-.302zM64.923 84.89l-1.224-.452a3.61 3.61 0 0 1-2.138-2.137l-.451-1.224a.117.117 0 0 0-.22 0l-.452 1.224a3.609 3.609 0 0 1-2.137 2.137l-1.224.452a.117.117 0 0 0 0 .22l1.224.451a3.61 3.61 0 0 1 2.137 2.138l.452 1.224a.117.117 0 0 0 .22 0l.452-1.224a3.61 3.61 0 0 1 2.137-2.138l1.224-.451a.117.117 0 0 0 0-.22zM157.923 116.89l-1.224-.451a3.609 3.609 0 0 1-2.137-2.138l-.452-1.224a.117.117 0 0 0-.22 0l-.451 1.224a3.61 3.61 0 0 1-2.138 2.137l-1.224.452a.117.117 0 0 0 0 .22l1.224.451a3.61 3.61 0 0 1 2.138 2.138l.451 1.224a.117.117 0 0 0 .22 0l.452-1.224a3.608 3.608 0 0 1 2.137-2.138l1.224-.451a.117.117 0 0 0 0-.22zM210.904 96.862l-1.53-.564a4.513 4.513 0 0 1-2.672-2.672l-.565-1.53a.147.147 0 0 0-.275 0l-.564 1.53a4.512 4.512 0 0 1-2.672 2.672l-1.53.564a.146.146 0 0 0 0 .275l1.53.565a4.512 4.512 0 0 1 2.672 2.672l.564 1.53a.146.146 0 0 0 .275 0l.565-1.53a4.512 4.512 0 0 1 2.672-2.672l1.53-.565a.146.146 0 0 0 0-.275z"/></g></g></svg>