<svg width="781" height="539" xmlns="http://www.w3.org/2000/svg"><g transform="translate(0 -1)" fill="none" fill-rule="evenodd"><path d="M781 332.83C781 140.895 683.77 28 491.822 28c-92.31 0-161.394 42.63-223.628 101.335-67.176 63.367-189.61 22.466-189.61 122.097C78.584 325.587 24 330.77 24 428.286c0 34.811 30.616 66.314 75.644 92.723 43.49 25.507 172.78 17.659 302.856 17.491 130.551-.168 261.876 7.24 297.653-23.74C750 471.598 781 411.723 781 332.83z" fill="#F6F6F6"/><path d="M253.798 329.68a1.214 1.214 0 0 0-.064-.183c-.142-.32-.42-.591-.771-.783a2.657 2.657 0 0 0-1.08-.3l-79.324-3.64c-.66-.019-1.182.317-1.329.852-.146.536.107 1.17.645 1.614l12.776 10.703.114 19.827c-.006.19.029.385.108.578.038.092.085.181.14.266.145.223.34.406.56.541.12.074.25.134.387.179.372.119.767.119 1.12-.026l15.477-5.974 11.747 10.43c.322.29.765.456 1.22.456.454 0 .879-.167 1.17-.459l36.682-32.932c.056-.045.108-.092.155-.142.07-.075.129-.155.175-.24.126-.23.163-.495.092-.767zm-76.82-1.839l56.039 2.285-46.394 5.788-9.646-8.073zm14.6 14.177a1.175 1.175 0 0 0-.294.42l-3.292 7.541-.024-11.229 35.172-4.659-30.957 7.609a1.392 1.392 0 0 0-.605.318zm-2.27 13.124l4.265-9.56 6.39 5.495-10.655 4.065zm26.006 5.597l-11.38-10.024-8.023-6.885 50.324-11.473-30.92 28.382zM133.798 372.68a1.214 1.214 0 0 0-.064-.183c-.142-.32-.42-.591-.771-.783a2.657 2.657 0 0 0-1.08-.3l-79.324-3.64c-.66-.019-1.182.317-1.329.852-.146.536.107 1.17.645 1.614l12.776 10.703.114 19.827c-.006.19.029.385.108.578.038.092.085.181.14.266.145.223.34.406.56.541.12.074.25.134.387.179.372.119.767.119 1.12-.026l15.477-5.974 11.747 10.43c.322.29.765.456 1.22.456.454 0 .879-.167 1.17-.459l36.682-32.932c.056-.045.108-.092.155-.142.07-.075.129-.155.175-.24.126-.23.163-.495.092-.767zm-76.82-1.839l56.039 2.285-46.394 5.788-9.646-8.073zm14.6 14.177a1.175 1.175 0 0 0-.294.42l-3.292 7.541-.024-11.229 35.172-4.659-30.957 7.609a1.392 1.392 0 0 0-.605.318zm-2.27 13.124l4.265-9.56 6.39 5.495-10.655 4.065zm26.006 5.597l-11.38-10.024-8.023-6.885 50.324-11.473-30.92 28.382zM376.798 288.68a1.214 1.214 0 0 0-.064-.183c-.142-.32-.42-.591-.771-.783a2.657 2.657 0 0 0-1.08-.3l-79.324-3.64c-.66-.019-1.182.317-1.329.852-.146.536.107 1.17.645 1.614l12.776 10.703.114 19.827c-.006.19.029.385.108.578.038.092.085.181.14.266.145.223.34.406.56.541.12.074.25.134.387.179.372.119.767.119 1.12-.026l15.477-5.974 11.747 10.43c.322.29.765.456 1.22.456.454 0 .879-.167 1.17-.459l36.682-32.932c.056-.045.108-.092.155-.142.07-.075.129-.155.175-.24.126-.23.163-.495.092-.767zm-76.82-1.839l56.039 2.285-46.394 5.788-9.646-8.073zm14.6 14.177a1.175 1.175 0 0 0-.294.42l-3.292 7.541-.024-11.229 35.172-4.659-30.957 7.609a1.392 1.392 0 0 0-.605.318zm-2.27 13.124l4.265-9.56 6.39 5.495-10.655 4.065zm26.006 5.597l-11.38-10.024-8.023-6.885 50.324-11.473-30.92 28.382z" fill="#B1B1B1" fill-rule="nonzero"/><path fill="#FFF" d="M372.053 218.326l-1.37 60.986L295 277.99l.99-56.69"/><path d="M295.052 274.991l2.948 3.052.052-3-3-.052zm3.937-53.638l-3-.052-.989 56.69L370.5 279l1.553-60.674-3.003.118-1.3 57.816-69.698-1.216.937-53.691zm68.695 57.891l3.051-2.932-2.984-.052-.067 2.984zm3.051-2.932l-3.051 2.932.067-2.984 2.984.052zm-72.683-1.268l.937-53.691-3-.052-.989 56.69L370.5 279l1.553-60.674-3.003.118-1.3 57.816-69.698-1.216zm-3-.053l2.948 3.052.052-3-3-.052z" fill="#3E4952" fill-rule="nonzero"/><path fill="#006BB1" d="M372.353 202.501l-85.987-1.5-.366 20.996 85.987 1.5z"/><path d="M369.04 220.446l-79.988-1.396.262-14.998 79.988 1.396-.262 14.998zm3.313-17.945L286.367 201 286 221.997l85.987 1.5.366-20.996z" fill="#3E4952" fill-rule="nonzero"/><path fill="#FFF" d="M297.325 203.192L286.326 203l-1.309 74.988 10.999.192z"/><path d="M295.5 275H288l1-71h7l-.5 71zm3.5-73.79h-12.642L285 278h14v-76.79zM346.895 202.411l2.995.157a6 6 0 1 1 5.678 6.306l-.157 2.996a9 9 0 1 0-8.516-9.459zM324.895 202.411l2.995.157a6 6 0 1 1 5.678 6.306l-.157 2.996a9 9 0 1 0-8.516-9.459zM302.895 201.411l2.995.157a6 6 0 1 1 5.678 6.306l-.157 2.996a9 9 0 1 0-8.516-9.459z" fill="#3E4952" fill-rule="nonzero"/><circle fill="#3E4952" transform="scale(-1 1) rotate(-1 0 39781.083)" cx="345.069" cy="240.069" r="4"/><circle fill="#3E4952" transform="scale(-1 1) rotate(-1 0 37374.721)" cx="324.069" cy="240.069" r="4"/><path fill="#3E4952" fill-rule="nonzero" d="M288.5 243l-2.36-1.909-12.228 17.583 2.463 1.713zM321.375 295.104l-.216 1.484-2.969-.432.216-1.484c.336-2.312.585-4.619.746-6.921.157-2.248.056-5.478-.308-9.668l-.13-1.494 2.989-.26.13 1.495c.376 4.332.482 7.704.312 10.136a96.316 96.316 0 0 1-.77 7.144zM395.33 233.757l.809-1.263-2.527-1.618-.808 1.263c-3.658 5.712-6.699 9.224-8.985 10.491-2.23 1.237-6.06 1.586-11.441.949l-1.49-.177-.353 2.98 1.49.176c5.949.704 10.35.303 13.248-1.304 2.842-1.575 6.149-5.393 10.057-11.497z"/><path fill="#FFF" d="M251 255l-.305 61H175v-56.699"/><path d="M175 313l3 3v-3h-3zm3-53.699h-3V316h75.695l.305-61-3 .17-.29 57.83H178v-53.699zm69.695 56.684l3-2.985h-2.985l-.015 2.985zm3-2.985l-3 2.985.015-2.985h2.985zM178 313v-53.699h-3V316h75.695l.305-61-3 .17-.29 57.83H178zm-3 0l3 3v-3h-3z" fill="#3E4952" fill-rule="nonzero"/><path fill="#00A1E7" d="M251 239h-86v21h86z"/><path d="M248 242v15h-80v-15h80zm3-3h-86v21h86v-21z" fill="#3E4952" fill-rule="nonzero"/><path fill="#FFF" d="M176 239h-11v77h11z"/><path d="M175 242v71h-7v-71h7zm3-3h-13v77h13v-77zM225.763 239.443l2.998.105a6 6 0 1 1 5.787 6.206l-.105 2.998a9 9 0 1 0-8.68-9.309zM203.763 239.443l2.998.105a6 6 0 1 1 5.787 6.206l-.105 2.998a9 9 0 1 0-8.68-9.309zM181.763 239.443l2.998.105a6 6 0 1 1 5.787 6.206l-.105 2.998a9 9 0 1 0-8.68-9.309z" fill="#3E4952" fill-rule="nonzero"/><circle fill="#3E4952" transform="matrix(-1 0 0 1 448 0)" cx="224" cy="277" r="4"/><circle fill="#3E4952" transform="matrix(-1 0 0 1 406 0)" cx="203" cy="277" r="4"/><path d="M166.966 279.466l.466-1.426L165 275.5l-.886 3.034c-.72 2.209-1.356 3.796-1.881 4.731-2.864 5.095-5.986 14.916-4.906 20.314l.295 1.471 2.942-.589-.295-1.47c-.899-4.492 2.042-13.743 4.579-18.256.642-1.143 1.34-2.89 2.118-5.27zM248.574 279.466l-.466-1.426 2.852-.932.466 1.426c.721 2.209 1.356 3.796 1.882 4.731 2.863 5.095 5.985 14.916 4.905 20.314l-.295 1.471-2.941-.589.294-1.47c.9-4.492-2.042-13.743-4.579-18.256-.642-1.143-1.34-2.89-2.118-5.27zM201.369 332.121l-.242 1.48-2.96-.483.241-1.48c.377-2.306.665-4.608.866-6.908.197-2.244.152-5.475-.139-9.67l-.104-1.497 2.993-.208.104 1.497c.3 4.338.348 7.711.135 10.14a96.316 96.316 0 0 1-.894 7.129zM219.369 332.121l-.242 1.48-2.96-.483.241-1.48c.377-2.306.665-4.608.866-6.908.197-2.244.152-5.475-.139-9.67l-.104-1.497 2.993-.208.104 1.497c.3 4.338.348 7.711.135 10.14a96.316 96.316 0 0 1-.894 7.129zM340.524 290.65l-.13 1.494-2.99-.261.131-1.495c.182-2.08-.63-6.102-2.461-11.918l-.45-1.431 2.861-.901.45 1.43c1.945 6.178 2.816 10.489 2.589 13.082zM103.524 370.65l-.13 1.494-2.99-.261.131-1.495c.182-2.08-.63-6.102-2.461-11.918l-.45-1.431 2.861-.901.45 1.43c1.945 6.178 2.816 10.489 2.589 13.082z" fill="#3E4952" fill-rule="nonzero"/><path fill="#FFF" d="M129 302l-.305 61H53v-56.699"/><path d="M53 360l3 3v-3h-3zm3-53.699h-3V363h75.695l.305-61-3 .17-.29 57.83H56v-53.699zm69.695 56.684l3-2.985h-2.985l-.015 2.985zm3-2.985l-3 2.985.015-2.985h2.985zM56 360v-53.699h-3V363h75.695l.305-61-3 .17-.29 57.83H56zm-3 0l3 3v-3h-3z" fill="#3E4952" fill-rule="nonzero"/><path fill="#BDBDBD" d="M129 286H43v21h86z"/><path d="M126 289v15H46v-15h80zm3-3H43v21h86v-21z" fill="#3E4952" fill-rule="nonzero"/><path fill="#FFF" d="M55 286H43v77h12z"/><path d="M53 289v71h-7v-71h7zm3-3H43v77h13v-77zM103.763 286.443l2.998.105a6 6 0 1 1 5.787 6.206l-.105 2.998a9 9 0 1 0-8.68-9.309zM81.763 286.443l2.998.105a6 6 0 1 1 5.787 6.206l-.105 2.998a9 9 0 1 0-8.68-9.309zM59.763 286.443l2.998.105a6 6 0 1 1 5.787 6.206l-.105 2.998a9 9 0 1 0-8.68-9.309z" fill="#3E4952" fill-rule="nonzero"/><circle fill="#3E4952" transform="matrix(-1 0 0 1 204 0)" cx="102" cy="324" r="4"/><circle fill="#3E4952" transform="matrix(-1 0 0 1 162 0)" cx="81" cy="324" r="4"/><path d="M43.487 332.424l1.386.574-1.148 2.772-1.386-.574c-4.728-1.959-8.264-4.742-10.564-8.35-2.99-4.69-3.735-8.307-3.735-15.306v-1.5h3v1.5c0 6.48.637 9.57 3.265 13.694 1.95 3.059 4.995 5.456 9.182 7.19zM79.369 379.121l-.242 1.48-2.96-.483.241-1.48c.377-2.306.665-4.608.866-6.908.197-2.244.152-5.475-.139-9.67l-.104-1.497 2.993-.208.104 1.497c.3 4.338.348 7.711.135 10.14a96.316 96.316 0 0 1-.894 7.129zM123.663 349.868l-1.306.738-1.476-2.612 1.307-.738c7.803-4.408 11.214-7.6 10.706-8.56-1.05-1.985-2.905-4.249-5.567-6.766l-1.09-1.03 2.061-2.18 1.09 1.03c2.88 2.724 4.934 5.23 6.158 7.543 1.766 3.338-2.353 7.191-11.883 12.575z" fill="#3E4952" fill-rule="nonzero"/><path fill="#FFF" d="M424 378l1.146 54H704.5v-54"/><path d="M704.5 427l-5 5v-5h5zm-5-49h5v54H425.146L424 378h5.001l1.04 49H699.5v-49zm-269.356 53.894L425.146 427h4.895l.103 4.894zM425.146 427l4.998 4.894-.103-4.894h-4.895zm274.354 0v-49h5v54H425.146L424 378h5.001l1.04 49H699.5zm5 0l-5 5v-5h5z" fill="#3E4952" fill-rule="nonzero"/><path d="M356.006 341c-1.636 30 9.005 45 31.924 45H679c-9.797.577-18.13-4.09-25-14-6.87-9.91-8.703-19.91-5.5-30" fill="#FFF"/><path d="M679 383.5l.147 4.996c-1.156.068-2.293.07-3.412.004H387.93c-24.537 0-36.127-16.338-34.42-47.636l4.992.272c-1.565 28.702 8.127 42.364 29.428 42.364h273.693c-3.506-2.468-6.736-5.832-9.678-10.076-7.295-10.524-9.275-21.322-5.828-32.18l4.766 1.512c-2.96 9.322-1.272 18.524 5.172 27.82 5.68 8.193 12.25 12.437 19.853 12.924H679z" fill="#3E4952" fill-rule="nonzero"/><path d="M428.178 340.625V141H711l-.89 221.827c-4.291 17.19-14.103 25.786-29.436 25.786-22.608 0-35.05-14.325-37.328-42.974H354v-5.014h74.178z" fill="#FFF"/><path d="M433.067 146v194.64h214.486l.365 4.603c2.084 26.254 12.594 38.37 32.299 38.37 12.73 0 20.591-6.753 24.403-21.423l.867-216.19h-272.42zM353.5 340.625h74.574V141H710.5l-.89 221.827c-4.284 17.19-14.082 25.786-29.393 25.786-2.618 0-5.1-.193-7.444-.578-2.516-.413-4.875-1.048-7.077-1.905a30.101 30.101 0 0 1-5.02-2.505c-10.324-6.435-16.236-19.097-17.735-37.986H353.5v-5.014z" fill="#3E4952" fill-rule="nonzero"/><path fill="#3E4952" d="M354 344h4v3.5h-4zM661 384h18.917v4.5H661z"/><path fill="#3E4952" d="M661 382h7v3.5h-7z"/><path fill="#CBCBCB" d="M428 135h309v60H428z"/><path d="M433 140v54h299v-54H433zm-5-5h309v64H428v-64z" fill="#3E4952" fill-rule="nonzero"/><path fill="#FFF" d="M703 135h34v297h-34z"/><path d="M705 140v287h28V140h-28zm-5-5h38v297h-38V135z" fill="#3E4952" fill-rule="nonzero"/><path fill="#3E4952" fill-rule="nonzero" d="M431.937 274v-5h271.13v5z"/><path fill="#3E4952" fill-rule="nonzero" d="M493.5 199h5v142.5h-5zM630.5 198h5v143.5h-5zM562.5 199h5v143.5h-5zM447 429h5v91h-5zM700 429h5v91h-5zM470 429h5v91h-5zM723 429h5v91h-5z"/><path fill="#18FFFF" fill-rule="nonzero" d="M684.733 216.191l4.076 3.542-25.203 29.003-17.403-14.045 3.392-4.202 13.35 10.775zM547.733 218.191l4.076 3.542-25.203 29.003-17.403-14.045 3.392-4.202 13.35 10.775zM616.733 291.191l4.076 3.542-25.203 29.003-17.403-14.045 3.392-4.202 13.35 10.775z"/><path fill="#FFF" d="M480 33l.398 78.934H579V38.826"/><path d="M579 107.934l-4 4v-4h4zm-4-69.108h4v73.108h-98.602L480 33l4.001.235.377 74.7H575v-69.11zm-90.602 73.088l-4-3.98h3.98l.02 3.98zm-4-3.98l4 3.98-.02-3.98h-3.98zm94.602 0V38.826h4v73.108h-98.602L480 33l4.001.235.377 74.7H575zm4 0l-4 4v-4h4z" fill="#3E4952" fill-rule="nonzero"/><path fill="#00A1E7" d="M480 12h112v27H480z"/><path d="M484 16v19h104V16H484zm-4-4h112v27H480V12z" fill="#3E4952" fill-rule="nonzero"/><path fill="#FFF" d="M577 12h13v100h-13z"/><path d="M579 16v92h9V16h-9zm-4-4h17v100h-17V12zM512.319 12.424l-3.998.14a7.5 7.5 0 1 0-7.233 7.757l.14 3.998c-6.348.221-11.674-4.744-11.895-11.092-.222-6.347 4.744-11.673 11.091-11.894 6.348-.222 11.673 4.744 11.895 11.091zM540.319 12.424l-3.998.14a7.5 7.5 0 1 0-7.233 7.757l.14 3.998c-6.348.221-11.674-4.744-11.895-11.092-.222-6.347 4.744-11.673 11.091-11.894 6.348-.222 11.673 4.744 11.895 11.091zM569.319 12.424l-3.998.14a7.5 7.5 0 1 0-7.233 7.757l.14 3.998c-6.348.221-11.674-4.744-11.895-11.092-.222-6.347 4.744-11.673 11.091-11.894 6.348-.222 11.673 4.744 11.895 11.091z" fill="#3E4952" fill-rule="nonzero"/><circle fill="#3E4952" cx="516" cy="62" r="5"/><circle fill="#3E4952" cx="543" cy="62" r="5"/><path d="M520.742 136.476l.317 1.974-3.95.635-.317-1.974c-.89-5.54-1.204-9.877-.926-13.054.277-3.166 1.354-7.59 3.225-13.322l.62-1.9 3.803 1.24-.62 1.902c-1.785 5.467-2.798 9.628-3.043 12.429-.244 2.79.048 6.827.89 12.07zM554.007 136.6l-.164 1.993-3.987-.328.164-1.993c.459-5.581.636-9.834.535-12.734-.101-2.898-.57-7.008-1.408-12.309l-.312-1.975 3.95-.625.313 1.976c.861 5.447 1.347 9.704 1.454 12.793.108 3.086-.075 7.478-.545 13.202zM454.852 43.79l-.712-1.869 3.738-1.423.712 1.869c2.587 6.793 5.15 11.598 7.626 14.383 2.406 2.705 7.515 5.628 15.269 8.638l1.864.724-1.448 3.729-1.864-.724c-8.298-3.222-13.882-6.416-16.81-9.71-2.86-3.215-5.63-8.41-8.375-15.617zM617.074 47.79l.711-1.869-3.738-1.423-.712 1.869c-2.587 6.793-5.15 11.598-7.625 14.383-2.406 2.705-7.515 5.628-15.269 8.638l-1.864.724 1.448 3.729 1.864-.724c8.297-3.222 13.881-6.416 16.81-9.71 2.86-3.215 5.63-8.41 8.375-15.617z" fill="#3E4952" fill-rule="nonzero"/><path fill="#FFF" d="M433 2l34.571 3.071V45L433 41.929z"/><path d="M436 40.117l28.571 2.598V7.883L436 5.285v34.832zM433 2l34.571 3.143V46L433 42.857V2z" fill="#3E4952" fill-rule="nonzero"/><path d="M450.027 29.492l-2.946.208 1.359-1.718 1.587 1.51zm9.326-15.301l3.136 2.482L448.86 33.9l-9.687-9.21 2.757-2.9 6.511 6.192 10.913-13.791zM60 421v3h-4v-3h4zm-2 0v3H46v-3h12zm-10 0v3h-4v-3h4zm-10 0v3h-4v-3h4zm-2 0v3H24v-3h12zm-10 0v3h-4v-3h4zm-10 0v3h-4v-3h4zm-2 0v3H2v-3h12zm-10 0v3H0v-3h4z" fill="#18FFFF" fill-rule="nonzero"/><path d="M399 150v3h-4v-3h4zm-2 0v3h-12v-3h12zm-10 0v3h-4v-3h4zm-10 0v3h-4v-3h4zm-2 0v3h-12v-3h12zm-10 0v3h-4v-3h4zm-10 0v3h-4v-3h4zm-2 0v3h-12v-3h12zm-10 0v3h-4v-3h4z" fill="#3E4952" fill-rule="nonzero"/><path fill="#18FFFF" fill-rule="nonzero" d="M304 383v3h-83v-3zM362 164v3h-44v-3z"/><path fill="#3E4952" fill-rule="nonzero" d="M69 435v3H24.758v-3zM281 370v3h-44.242v-3z"/></g></svg>